<svg width="7" height="12" viewBox="0 0 7 12" fill="none" xmlns="http://www.w3.org/2000/svg">
<path id="Vector" d="M6.20921 10.7458C6.39546 10.5584 6.5 10.305 6.5 10.0408C6.5 9.77661 6.39546 9.52316 6.20921 9.3358L2.66921 5.7458L6.20921 2.2058C6.39546 2.01844 6.5 1.76498 6.5 1.5008C6.5 1.23661 6.39546 0.983161 6.20921 0.795798C6.11624 0.70207 6.00564 0.627675 5.88378 0.576907C5.76193 0.526138 5.63122 0.5 5.49921 0.5C5.3672 0.5 5.23649 0.526138 5.11463 0.576907C4.99277 0.627675 4.88217 0.70207 4.78921 0.795798L0.549208 5.0358C0.455479 5.12876 0.381085 5.23936 0.330317 5.36122C0.279548 5.48308 0.253409 5.61379 0.253409 5.7458C0.253409 5.87781 0.279548 6.00852 0.330317 6.13037C0.381085 6.25223 0.455479 6.36283 0.549208 6.4558L4.78921 10.7458C4.88217 10.8395 4.99277 10.9139 5.11463 10.9647C5.23649 11.0155 5.3672 11.0416 5.49921 11.0416C5.63122 11.0416 5.76193 11.0155 5.88378 10.9647C6.00564 10.9139 6.11624 10.8395 6.20921 10.7458Z" fill="#70D44B"/>
</svg>
